<?xml version="1.0" encoding="utf-8"?>
<!-- Generator: Adobe Illustrator 16.0.0, SVG Export Plug-In . SVG Version: 6.00 Build 0)  -->
<!DOCTYPE svg PUBLIC "-//W3C//DTD SVG 1.1//EN" "http://www.w3.org/Graphics/SVG/1.1/DTD/svg11.dtd">
<svg version="1.1" id="Layer_1" xmlns="http://www.w3.org/2000/svg" xmlns:xlink="http://www.w3.org/1999/xlink" x="0px" y="0px"
	 width="547px" height="369.572px" viewBox="0 0 547 369.572" enable-background="new 0 0 547 369.572" xml:space="preserve">
<path fill-rule="evenodd" clip-rule="evenodd" d="M336.426,154.341c-6.459,10.379-10.578,21.389-9.585,33.844
	c0.442,5.547-0.493,11.402,3.513,16.201c2.43,2.91,5.675,4.779,9.137,3.41c2.186-0.865,4.604-3.541,5.127-5.814
	c2.844-12.395,6.181-24.818,7.372-37.418c1.934-20.43-1.783-40.567-6.275-60.481c-1.144-5.07-2.292-10.224-9.634-8.698
	c-1.307,0.272-2.846-0.833-4.305-0.947c-1.402-0.109-2.977-0.084-4.24,0.442c-8.881,3.695-15.076,17.547-11.924,26.38
	c2.322,6.507,7.722,10.313,13.026,9.154c3.215-0.702,6.419-1.454,9.911-2.247C342.246,142.148,343.329,143.249,336.426,154.341z
	 M342.022,154.419c1.38,15.938-0.152,31.551-5.533,46.781C326.84,184.267,337.449,169.708,342.022,154.419z M333.09,120.465
	c-1.027,1.616-3.105,3.66-4.654,3.622c-3.373-0.083-6.139-1.55-6.272-6.026c-0.183-6.141,4.847-17.203,11.521-18.575
	C335.004,106.547,337.425,113.653,333.09,120.465z"/>
<path fill-rule="evenodd" clip-rule="evenodd" d="M166.986,135.02c1.07,1.048,4.022,1.429,5.431,0.396
	c1.25-0.916,1.262-3.384,0.563-4.452c-7.701-11.764-9.344-25.172-10.727-38.61c-0.93-9.03-1.092-18.141-2.098-27.159
	c-0.206-1.855-2.463-4.686-4.064-4.9c-2.428-0.326-4.92,1.345-5.092,4.692c-0.373,7.279-1.058,14.548-1.234,21.83
	c-0.135,5.563-1.329,6.994-6.758,7.107c-3.272,0.068-7.176-0.502-9.677,1.034c-6.286,3.861-11.925,8.417-14.209,16.374
	c-2.214,7.714,0.587,13.264,5.396,18.403c4.394,4.695,11.915,5.255,17.73,3.782c5.501-1.393,15.688-9.956,16.653-7.892
	C159.344,125.5,163.621,131.721,166.986,135.02z M143.801,125.871c-3.957,3.509-10.513,3.475-14.689,0.161
	c-3.016-2.392-4.297-8.87-2.344-12.879c3.557-7.299,9.492-11.681,17.379-13.257c5.304-1.06,6.908,0.909,7.216,9.595
	C150.746,114.805,149.113,121.161,143.801,125.871z"/>
<path fill-rule="evenodd" clip-rule="evenodd" d="M196.827,244.597c10.817-1.229,18.157-7.322,22.618-16.904
	c0.949-2.039,0.879-4.955,0.314-7.227c-1.908-7.686-14.473-16.445-24.824-12.902c-1.249,0.428-2.459,1.055-3.742,1.287
	c-11.035,1.994-15.559,7.016-15.954,17.828C174.881,236.466,186.117,245.812,196.827,244.597z M209.617,215.431
	c5.396,5.18,4.578,10.625-1.526,15.271c-0.772,0.588-1.268,1.533-2.026,2.143c-4.574,3.684-11.765,4.996-16.076,0.061
	c-5.125-5.867-5.673-13.396-0.381-17.141c3.092-2.188,9.859-4.383,10.976-4.39C203.404,211.402,207.428,213.331,209.617,215.431z"/>
<path fill-rule="evenodd" clip-rule="evenodd" d="M331.234,242.187c2.936,0.895,8.188-0.32,9.992-1.197
	c0.738-2.289-1.187-6.201-2.894-7.043c-7.261-3.582-8.312-10.145-9.063-16.799c-0.654-5.797-7.652-11.777-13.125-9.924
	c-8.057,2.732-14.687,7.613-15.678,16.744c-0.492,4.527-0.807,10.98,1.787,13.586c8.225,8.26,11.935,9.453,19.159-1.008
	c0.37-0.537,0.897-0.965,1.163-1.244C325.703,237.923,328.109,241.231,331.234,242.187z M320.754,225.749
	c-0.762,2.572-4.135,4.625-6.751,6.273c-1.141,0.719-3.675,0.884-4.751-0.385c-0.971-1.356-1.846-5.564-1.021-7.775
	c1.865-4.998,5.821-8.191,11.644-9.021C320.295,218.71,321.693,222.575,320.754,225.749z"/>
<path fill-rule="evenodd" clip-rule="evenodd" d="M366.26,211.351c-0.138-7.775,0.006-15.557-0.217-23.33
	c-0.039-1.359-0.501-3.812-2.022-4.025c-0.77-0.453-2.369,0.895-2.599,1.637c-2.062,6.666-2.802,13.379-1.867,20.459
	c1.251,9.473,1.922,19.053,2.22,28.605c0.146,4.711,1.881,8.756,6.221,10.35c12.382,4.547,24.488-3.178,25.689-16.393
	c0.751-8.264-5.12-15.309-13.235-14.432c-4.55,0.492-8.832,3.461-13.483,5.418C366.772,217.485,366.313,214.423,366.26,211.351z
	 M371.67,239.142c0.352-4.498,0.321-9.338,2.111-13.297c1.15-2.543,5.001-4.494,8.025-5.346c2.132-0.602,5.535,6.258,5.275,9.768
	c-0.328,4.436-7.767,11.1-13.11,10.838C373.812,241.25,371.612,239.878,371.67,239.142z"/>
<path fill-rule="evenodd" clip-rule="evenodd" d="M201.839,119.859c8.952-3.062,15.157-10.611,14.448-19.001
	c-0.254-3.007-2.472-6.54-4.881-8.483c-2.575-2.077-5.531-2-9.588,0.028c-5.671,2.835-9.569,9.764-12.032,15.521
	c-4.912,9.534,1.48,22.429,9.101,26.059c8.562,4.077,17.789,4.71,26.941,1.848c1.202-0.376,2.575-2.812,2.495-4.214
	c-0.299-5.202-1.921-5.951-6.632-3.679c-9.456,4.563-19.891,1.353-22.475-7.446C200.277,120.241,201.081,120.118,201.839,119.859z
	 M203.777,97.962c1.596-0.967,5.165-1.218,6.049-0.221c1.3,1.469,1.965,4.759,1.206,6.557c-2.35,5.565-7.221,8.331-13.552,9.639
	C196.466,106.992,198.031,101.445,203.777,97.962z"/>
<path fill-rule="evenodd" clip-rule="evenodd" d="M367.855,108.344c1.916-2.725,2.894-4.304,4.058-5.73
	c3.018-3.699,5.805-7.665,9.269-10.898c3.737-3.488,12.054-1.33,15.424,2.672c4.999,5.937,4.629,13.275,6.255,20.104
	c0.959,4.024,1.997,8.05,2.581,12.135c0.198,1.38,0.023,4.157-1.391,4.424c-0.919,0.191-3.356-1.75-3.723-3.008
	c-2.212-7.602-3.849-15.372-6.1-22.961c-0.677-2.283-2.749-5.914-4.094-5.875c-2.939,0.085-6.372,1.521-8.584,3.529
	c-2.462,2.235-3.868,5.674-5.597,8.668c-2.104,3.646-3.916,7.471-6.187,11.004c-0.633,0.985-2.547,1.818-3.676,1.617
	c-1.044-0.186-2.458-1.76-2.617-2.879c-1.051-7.372-1.961-14.774-2.533-22.196c-0.12-1.556,0.398-3.844,2.148-4.565
	c1.245-0.301,2.955,2.179,3.414,3.724C367.321,100.862,367.323,103.856,367.855,108.344z"/>
<path fill-rule="evenodd" clip-rule="evenodd" d="M123.147,225.073c0.008-12.473,6.624-22.537,15.679-24.523
	c1.553-0.34,3.643-0.059,4.611,1.263c0.551,2.079-0.686,3.153-1.627,4.448c-3.354,4.621-7.469,8.816-10.07,13.812
	c-1.812,3.482-1.25,7.902,3.094,10.354c4.6,2.596,8.963,1.75,12.38-2.076c0.948-1.062,3.411-2.451,3.646-2.207
	c1.982,2.053,3.888,4.307,5.17,6.828c0.378,0.744-1.001,3.016-2.124,3.756c-2.615,1.723-5.521,3.033-8.387,4.344
	c-10.799,4.938-20.729-0.588-22.072-12.244C123.257,227.179,123.182,225.515,123.147,225.073z"/>
<path fill-rule="evenodd" clip-rule="evenodd" d="M254,103.5c-0.312,2.031,3.775,4.807,6.5,6.415
	c5.977,3.526,9.568,9.477,7.572,13.724c-4.093,8.708-13.198,14.108-19.723,10.905c-2.326-1.142-5.35-3.502-4.892-7.168
	c0.326-0.865,2.097-2.24,3.274-2.273c2.582-0.073,5.195,0.877,7.775,0.792c5.289-0.173,6.953-3.612,3.758-7.897
	c-1.645-2.204-3.963-3.927-6.076-5.753c-2.235-1.932-4.641-3.665-6.875-5.598c-2.563-2.216-2.787-4.842-0.699-7.465
	c1.42-1.783,2.964-3.524,4.705-4.981c6.318-5.287,12.203-4.558,16.859,2.074c0.528,0.752,0.785,2.445,0.33,2.957
	c-0.652,0.734-2.166,1.241-3.155,1.048C257.635,99.159,255.312,99.75,254,103.5z"/>
<path fill-rule="evenodd" clip-rule="evenodd" d="M274.229,202.372c2.182,11.969,3.078,24.166,5.103,36.16
	c0.277,1.645-0.39,4.896-0.966,4.98c-2.224,0.318-5.946,0.43-6.646-0.793c-2.137-3.729-4.01-8.031-4.399-12.258
	c-1.104-11.988-1.391-24.053-2.066-36.082c-0.158-2.82,0.616-4.398,3.81-4.359c2.82,0.037,5.473-0.27,5.201,3.887
	C274.08,196.718,274.229,199.55,274.229,202.372C273.776,202.452,274.682,202.292,274.229,202.372z"/>
<path fill-rule="evenodd" clip-rule="evenodd" d="M248.258,200.501c1.299,8.988,2.047,18.047,3.246,27.049
	c0.457,3.438,1.045,6.996,0.574,10.361c-0.25,1.785-2.293,5.156-4.061,4.891c-1.545-0.672-2.844-2.9-2.993-4.471
	c-1.106-11.629-1.864-23.289-2.772-34.938c-0.256-3.281-0.879-6.555-0.867-9.828c0.006-1.498,0-3.865,1.762-4.49
	c1.693-0.312,4.213,2.328,4.906,4.059C248.908,195.274,248.258,198.019,248.258,200.501
	C248.051,200.528,248.463,200.474,248.258,200.501z"/>
<path fill-rule="evenodd" clip-rule="evenodd" d="M286.225,103.064c0.88-1.356,5.932-2.095,7.753-1.224
	c0.491,0.628,0.311,2.148,0.269,3.491c-0.275,8.756-0.458,17.519-1.01,26.258c-0.109,1.744-0.715,5.091-2.568,5.091
	c-1.918,0-2.449-2.819-2.96-4.597c-0.726-3.186-1.267-6.494-1.399-9.554C286.031,116.13,285.834,103.5,286.225,103.064z"/>
<path fill-rule="evenodd" clip-rule="evenodd" d="M417.324,228.056c3.984-0.158,8.337,3.756,8.467,7.615
	c0.145,4.289-3.76,8.971-7.626,9.145c-3.663,0.166-7.424-3.453-7.101-7.414C411.474,232.384,413.741,227.663,417.324,228.056z"/>
<path fill-rule="evenodd" clip-rule="evenodd" d="M295,72.083c1.085-0.479,3.719,4.22,4.039,6.447
	c0.527,3.666-3.107,5.388-5.859,5.097c-1.541-0.162-3.652-3.601-3.793-5.679C289.268,76.19,293.495,71.527,295,72.083z"/>
<g>
	<g>
		<path fill-rule="evenodd" clip-rule="evenodd" d="M541.603,217.227c3.594-36.078-5.128-71.27-8.745-106.801
			c-1.729-16.992-3.195-34.014-4.988-51c-1.101-10.422-3.837-19.967-12.648-27.143c-5.752-4.684-11.701-8.639-18.041-12.508
			c-12.996-7.93-27.229-10.703-41.596-12.307c-15.958-1.781-32.156-1.441-48.251-1.969c-13.299-0.436-26.604-1.189-39.897-1.057
			c-11.785,0.117-23.558,1.283-35.339,1.938c-5.132,0.285-10.283,0.297-15.403,0.707c-5.933,0.477-11.853,1.893-17.759,1.785
			c-20.438-0.369-40.864-1.557-61.303-1.791c-16.951-0.195-33.925,0.238-50.868,0.91c-14.104,0.559-28.171,2.545-42.269,2.691
			C121.913,10.916,99.322,10,76.733,9.881c-9.27-0.051-18.732-0.342-27.778,1.295C21.848,16.08,5.525,30.27,4.094,58.787
			c-0.717,14.271-1.388,28.422,0.578,42.787c4.466,32.611,7.491,65.418,11.792,98.053c3.189,24.201,6.532,48.352,7.842,72.756
			c0.416,7.734,1.507,15.543,3.334,23.062c2.092,8.611,5.963,16.734,12.914,22.584c12.341,10.389,27.297,15.041,42.945,15.047
			c17.72,0.004,35.449-2.092,53.156-3.504c9.752-0.777,19.446-2.498,29.204-2.92c9.414-0.408,18.892,0.043,28.315,0.58
			c17.668,1.008,35.636-1.125,52.863,4.695c2.601,0.879,5.588,1.709,7.43,3.535c5.404,5.357,10.383,11.152,15.412,16.881
			c4.166,4.744,7.992,9.797,12.29,14.412c4.036,4.336,7.467,3.596,9.79-1.744c1.527-3.514,2.934-7.078,4.399-10.619
			c4.648-11.229,12.39-17.926,25.2-17.223c0.828,0.045,1.664-0.078,2.496-0.105c24.763-0.859,49.52-2.012,74.289-2.48
			c19.934-0.377,39.882,0.094,59.824,0.146c12.576,0.035,25.168,0.357,37.725-0.148c7.61-0.305,14.891-2.506,21.463-6.922
			c7.845-5.27,11.598-12.748,15.285-21.268c6.052-13.984,7.338-28.678,8.654-43.24C542.67,247.959,541.603,232.543,541.603,217.227
			C541.116,217.246,542.089,217.205,541.603,217.227z M248.622,318.469c7.7,1.168,12.488,7.191,11.779,17.203
			c-3.891-4.684-7.781-9.369-11.673-14.055c-0.009,1.764-0.009,3.533-0.009,5.621c-8.592,0.375-8.236-8.984-13.634-12.428
			c1.688,3.576,3.377,7.154,5.341,11.316c-9.015-0.863-6.521-9.652-10.529-13.611c7.51,1.043,15.59,0.502,18.997,9.266
			C248.804,320.678,248.712,319.572,248.622,318.469z M278.675,349.408c-4.352-7.844-8.695-15.693-13.184-23.461
			c-5.467-9.463-15.092-13.082-24.702-15.135c-18.505-3.951-37.253-6.83-55.972-9.689c-12.131-1.854-24.363-3.721-36.596-4.096
			c-21.242-0.652-42.523,0.104-63.779-0.283c-7.086-0.129-14.174-1.77-21.201-3.049c-4.48-0.816-8.975-1.898-13.244-3.461
			c-10.691-3.912-15.358-13.113-17.83-23.105c-3.623-14.65-6.664-29.492-9.004-44.402c-3.219-20.508-5.809-41.125-8.197-61.75
			c-2.885-24.916-6.025-49.844-7.566-74.857c-0.768-12.447,0.697-25.311,3.095-37.607c3.583-18.373,17.21-27.881,34.237-32.531
			c11.743-3.209,23.87-4.02,36.086-2.369c3.77,0.51,7.648,0.262,11.478,0.252c22.603-0.059,45.207-0.074,67.81-0.281
			c5.801-0.053,11.593-0.826,17.396-1.133c13.414-0.707,26.828-1.533,40.253-1.928c13.087-0.387,26.19-0.514,39.282-0.346
			c9.441,0.121,18.871,1.188,28.312,1.309c7.115,0.092,14.238-0.752,21.364-0.982c8.372-0.27,16.755-0.186,25.124-0.506
			c12.252-0.467,24.509-1.842,36.74-1.617c28.398,0.52,56.82,1.191,85.156,3.008c10.902,0.697,21.775,4.082,32.328,7.326
			c8.917,2.742,14.038,9.564,15.304,19.119c1.92,14.488,3.935,28.965,6.157,43.408c3.938,25.582,8.451,51.084,11.948,76.727
			c1.771,12.982,2.176,26.184,2.615,39.307c0.595,17.777,0.605,35.576,0.913,53.365c0.256,14.738-2.456,29.055-6.589,43.078
			c-2.336,7.924-9.729,10.703-16.567,12.875c-16.997,5.4-34.434,8.645-52.396,8.533c-18.916-0.117-37.837,0.23-56.747-0.096
			c-19.259-0.33-38.513-1.803-57.757-1.602c-7.551,0.08-15.115,3.186-22.558,5.318c-1.344,0.385-2.353,2.629-3.126,4.207
			c-6.287,12.814-12.477,25.678-18.721,38.514c-0.273,0.562-0.792,1.006-2.018,2.516
			C283.644,358.627,281.215,353.986,278.675,349.408z M519.717,88.711c2.638,4.062,6.767,7.4,8.481,11.752
			c1.803,4.574,1.521,9.973,2.151,15.01c-0.413,0.215-0.825,0.43-1.238,0.645c-1.468-1.768-2.898-3.57-4.411-5.299
			c-4.281-4.891-5.013-12.465-11.744-15.541c-0.414-0.189-0.558-1.17-0.662-1.811c-1.816-11.137-3.618-22.277-5.378-33.422
			c-0.119-0.754,0.117-1.562,0.188-2.344c0.486-0.396,0.973-0.793,1.458-1.189c0.435,1.027,0.721,2.152,1.327,3.064
			c3.945,5.934,7.863,11.891,12.021,17.674c1.043,1.453,2.928,2.301,4.951,3.82c0,3.07,0,6.783,0,10.498
			c-0.366,0.191-0.731,0.383-1.098,0.574c-4.235-6.215-8.471-12.43-12.706-18.646c-0.518,0.311-1.035,0.621-1.554,0.93
			C514.221,79.201,516.729,84.111,519.717,88.711z M194.796,316.619c-0.861-3.098-2.588-5.955-3.924-8.92
			c-0.406,0.158-0.812,0.316-1.218,0.477c1.726,4.645,3.452,9.287,5.327,14.332c-2.106,0-3.982,0-4.961,0
			c-3.076-6.369-5.988-12.396-9.142-18.924c6.354,0.873,12.412,1.654,18.445,2.596c0.832,0.129,1.983,0.893,2.235,1.623
			c1.654,4.801,3.104,9.672,4.625,14.535C200.364,323.764,196.47,322.639,194.796,316.619z M159.587,323.525
			c-3.15-7.227-6.207-14.24-9.265-21.256c-0.497,0.188-0.994,0.375-1.491,0.562c2.498,6.756,4.996,13.514,7.562,20.459
			c-4.494-0.301-9.656-9.51-13.266-22.885c4.729,0,9.376,0,13.678,0c2.627,7.418,5.039,14.229,7.675,21.67
			C162.489,322.666,161.116,323.072,159.587,323.525z M517.964,104.842c3.777,5.619,8.165,10.928,11.181,16.926
			c2.201,4.381,2.608,9.662,3.216,14.666c-8.915-6.068-20.397-23.635-17.096-35.889
			C516.162,101.979,517.021,103.439,517.964,104.842z M524.298,274.979c1.574-3.232,1.523-7.254,2.224-10.967
			c5.988,5.891,9.073,17.664,5.938,23.896c-1.93-3.836-3.722-7.396-6.007-11.938c-0.795,8.477,5.653,14.48,3.54,21.887
			C525.187,290.834,519.812,284.189,524.298,274.979z M501.649,27.234c8.834,1.68,25.084,19.174,21.641,33.68
			C515.757,49.191,508.901,38.52,501.649,27.234z M107.069,327.414c-4.247,1.621-7.608,1.193-9.493-3.156
			c-3.074-7.096-5.977-14.266-9.169-21.924c2.637-0.494,4.655-0.873,6.679-1.252C99.224,310.174,103.085,318.658,107.069,327.414z
			 M506.209,53.719c-0.427-4.031-0.877-8.271-1.494-14.09c1.843,1.814,2.837,2.5,3.44,3.438c3.591,5.578,6.998,11.275,10.672,16.797
			c1.237,1.857,3.519,3.084,4.533,5.014c1.482,2.82,2.254,6.012,3.328,9.045C516.092,70.406,516.35,57.332,506.209,53.719z
			 M123.385,321.121c-2.521-6.623-5.34-13.131-8.122-19.906c3.494-0.861,6.424-0.994,8.099,2.686
			c3.144,6.908,6.277,13.818,9.511,20.936C127.563,327.277,125.041,325.473,123.385,321.121z M506.948,327.684
			c-6.893,3.871-10.103,2.537-11.869-4.461c-0.806-3.189-1.746-6.346-2.749-9.961c2.5-0.84,5.085-1.709,8.356-2.809
			C502.945,316.668,504.96,322.211,506.948,327.684z M174.33,315.371c-1.676-4.424-3.12-8.936-4.75-13.639
			c5.34-0.76,7.974,1.188,9.687,5.525c2.028,5.135,4.717,10.01,7.262,15.289C177.634,322.842,177.046,322.535,174.33,315.371z
			 M90.089,326.055c-4.396-7.736-8.46-15.662-12.729-23.697c5.817-1.525,8.709,0.223,10.351,5.281
			c2.142,6.6,4.958,12.982,7.483,19.459c-0.225,0.525-0.447,1.049-0.672,1.572C93.009,327.818,90.825,327.348,90.089,326.055z
			 M108.855,300.789c1.151-0.031,2.304-0.008,3.476-0.008c3.265,8.326,6.45,16.455,9.753,24.881
			c-2.485,1.34-4.526,1.137-5.919-1.609c-2.098-4.135-4.281-8.236-6.138-12.479c-1.429-3.268-2.411-6.73-3.765-10.598
			C107.219,300.904,108.036,300.811,108.855,300.789z M537.417,242.336c-5.909-2.705-12.544-20.518-10.359-28.725
			C532.628,222.709,539.735,230.773,537.417,242.336z M132.153,300.955c2.762,7.516,5.621,15.293,8.479,23.07
			c-0.41,0.449-0.82,0.898-1.229,1.35c-1.468-0.699-3.707-1.012-4.278-2.158c-3.532-7.076-6.688-14.338-10.299-22.262
			C127.407,300.955,129.368,300.955,132.153,300.955z M510.761,306.338c1.855,5.395,3.834,10.301,5.06,15.387
			c0.263,1.092-1.948,3.363-3.491,4.086c-0.876,0.41-3.495-0.881-3.969-1.988c-1.813-4.234-3.075-8.705-4.762-13.74
			C505.723,308.973,508.046,307.758,510.761,306.338z M166.46,318.975c-2.294-5.777-4.828-11.459-7.518-17.783
			c2.795,0,4.837,0,7.316,0c2.451,6.633,5.004,13.543,7.696,20.828C170.095,323.385,167.844,322.459,166.46,318.975z M58.79,299.49
			c4.186-1.279,6.633-0.691,8.135,3.334c2.193,5.879,4.934,11.553,7.333,17.357c0.655,1.586,0.929,3.332,1.376,5.004
			c-0.646,0.33-1.291,0.658-1.938,0.986C67.134,318.354,64.142,308.447,58.79,299.49z M533.306,144.268
			c1.397,1.914,0.695,5.361,0.977,8.352c-6.92-2.689-16.702-19.078-15.831-26.025C523.614,132.619,528.851,138.158,533.306,144.268z
			 M149.528,323.969c-4.506,1.578-6.541-0.314-7.755-3.902c-2.069-6.115-4.152-12.225-6.461-19.018
			c1.589-0.148,3.357-0.311,5.243-0.486C143.663,308.668,146.502,316.074,149.528,323.969z M81.179,326.527
			c-3.838-7.709-7.374-15.566-10.95-23.402c-0.24-0.525-0.031-1.256-0.031-2.281c1.954,0,3.681,0,5.183,0
			c0.152,1.775-0.123,3.539,0.492,4.9c3.266,7.227,6.755,14.354,10.166,21.516c-0.29,0.385-0.58,0.77-0.871,1.152
			C83.799,327.803,81.694,327.561,81.179,326.527z M39.208,290.033c13.12,6.816,13.031,21.342,20.086,31.697
			c-0.77,0.439-1.54,0.877-2.311,1.316C51.059,312.043,45.134,301.039,39.208,290.033z M50.628,317.391
			c-0.274,0.334-0.55,0.666-0.824,1c-1.246-0.875-3.041-1.469-3.651-2.666c-5.431-10.66-10.702-21.402-15.878-32.188
			c-0.734-1.531-0.702-3.43-1.024-5.156c0.452-0.104,0.904-0.207,1.356-0.311C37.28,291.178,43.954,304.283,50.628,317.391z
			 M478.87,315.969c1.328,5.227,2.591,10.195,3.852,15.156c-6.085,2.205-8.011,1.246-9.646-4.754
			c-0.773-2.834-1.576-5.662-2.524-9.062C473.878,316.773,476.603,316.334,478.87,315.969z M435.324,319.539
			c3.525-0.162,7.066-0.324,10.898-0.498c0.988,3.811,1.905,7.348,2.834,10.928C439.343,331.572,435.597,328.727,435.324,319.539z
			 M57.953,302.404c1.916,5.453,4.76,10.576,7.036,15.912c0.666,1.561,0.75,3.367,1.102,5.062c-0.729,0.266-1.457,0.531-2.186,0.797
			c-4.766-9.059-9.532-18.117-14.709-27.959C54.639,296.482,56.614,298.594,57.953,302.404z M524.014,313.703
			c0.321,2.078-2.381,4.625-3.711,6.959c-0.55-0.113-1.099-0.227-1.648-0.338c-1.271-3.699-2.285-7.512-3.877-11.064
			c-2.087-4.658,1.27-6.793,4.418-10.23C521.063,304.393,523.275,308.934,524.014,313.703z M529.203,153.912
			c1.548,1.91,3.784,3.396,4.88,5.504c1.087,2.094,1.131,4.727,1.632,7.123c-0.982,0.199-2.619,0.859-2.85,0.531
			c-4.771-6.797-12.149-12.242-10.752-22.426C524.469,147.74,526.757,150.889,529.203,153.912z M524.604,161.383
			c3.113,8.377,13.831,12.705,11.831,24.234C530.591,182.684,522.858,167.512,524.604,161.383z M526.39,197.33
			c10.041,9.127,11.539,12.432,10.43,23.578C530.879,216.59,524.597,201.973,526.39,197.33z M489.308,314.6
			c1.539,4.969,2.983,9.633,4.419,14.266c-4.53,2.08-8.194-0.15-10.085-6.051c-0.754-2.352-1.241-4.791-1.937-7.531
			C484.233,315.057,486.647,314.838,489.308,314.6z M104.669,304.174c2.753,7.402,5.625,14.762,8.607,22.557
			c-1.548,0.26-2.733,0.459-2.922,0.49c-4.256-8.949-8.26-17.367-12.414-26.104C101.055,300.232,103.409,300.787,104.669,304.174z
			 M527.474,189.988c-1.586-3.238-2.12-6.99-3.121-10.516c0.496-0.242,0.991-0.486,1.487-0.729c0.765,0.65,1.784,1.156,2.253,1.977
			c2.854,4.992,5.814,9.947,8.204,15.16c0.695,1.516-0.36,3.836-0.724,6.625C532.217,197.418,529.401,193.92,527.474,189.988z
			 M527.776,235.26c2.861,7.789,11.511,12.916,9.458,22.932C530.87,251.947,526.67,244.766,527.776,235.26z M362.705,330.158
			c-7.167,2.539-9.471,0.533-10.706-11.451C360.439,317.549,360.562,317.684,362.705,330.158z M469.146,323.771
			c0.405,2.508,1.557,4.896,2.395,7.414c-8.301,1.037-8.924,0.367-11.559-12.037C465.401,316.635,468.237,318.152,469.146,323.771z
			 M432.882,319.779c0.771,3.424,1.446,6.418,2.117,9.396c-9.816,2.176-10.747,1.469-12.601-9.396
			C426.014,319.779,429.617,319.779,432.882,319.779z M220.095,311.336c8.171-0.227,5.369-4.168,12.571,13.062
			C224.704,324.432,221.745,321.275,220.095,311.336z M448.437,318.971c2.611,0.129,5.01,0.246,7.557,0.371
			c1.136,3.65,2.23,7.168,3.351,10.764C451.171,331.213,452.895,331.809,448.437,318.971z M341.851,331.955
			c-4.435,0.688-6.717-3.26-8.348-14.74C340.017,317.645,340.929,319.33,341.851,331.955z M371.881,330.143
			c-5.581,1.355-8.188-2.09-8.646-11.6C369.961,318.057,371.055,319.609,371.881,330.143z M420.247,324.936
			c0.451,1.541,0.728,3.135,1.07,4.658c-6.025,2.039-8.33-0.486-9.345-10.004c2.083,0,4.144,0,6.428,0
			C419.077,321.523,419.741,323.207,420.247,324.936z M212.03,309.516c4.222-0.398,8.921,6.51,9.76,14.689
			C215.992,323.35,214.124,320.428,212.03,309.516z M213.038,323.242c-3.788,0.146-7.586-6.123-9.067-14.969
			C210.411,307.557,211.665,309.627,213.038,323.242z M351.174,330.398c-3.346,1.639-5.841,1.67-6.597-2.869
			c-0.508-3.049-1.138-6.076-1.706-9.074C347.646,316.74,348.225,318.207,351.174,330.398z M402.027,320.68
			c6.18-1.975,7.393-0.66,8.867,9.834C405.344,330.912,402.901,328.057,402.027,320.68z M326.538,332.33
			c-4.627,0.455-7.046-1.016-7.251-4.543c-0.16-2.758-3.329-6.291,2.188-8.883C323.182,323.428,324.786,327.686,326.538,332.33z
			 M380,330.242c-3.514,0.189-3.514,0.189-7.738-11.557C377.949,317.418,379.631,320.086,380,330.242z M399.645,327.109
			c-7.422,2.443-8.206,1.777-8.604-7.311C398.483,318.938,398.873,319.27,399.645,327.109z M525.198,297.969
			c0.356,1.082,0.435,2.707,1.181,3.133c4.543,2.582,2.048,5.221,0.569,8.174c-4.148-4.115-6.784-14.811-4.465-19.654
			C523.515,292.797,524.348,295.387,525.198,297.969z M333.085,332.734c-0.783,0.035-2.059-0.354-2.318-0.934
			c-1.689-3.75-3.261-7.564-4.602-11.449c-0.225-0.652,0.674-2.229,1.392-2.508c0.643-0.25,2.315,0.488,2.563,1.152
			c1.444,3.861,2.602,7.832,3.961,12.094C333.821,331.549,333.479,332.717,333.085,332.734z M389.412,329.756
			c-5.397,0.508-7.415-2.52-8.229-12.117C388.456,319.219,387.423,325.266,389.412,329.756z M528.06,255.422
			c8.589,6.086,9.805,9.023,6.513,16.605C532.247,266.1,530.394,261.373,528.06,255.422z M272.352,345.254
			c-6.59-2.947-8.872-8.229-9.485-14.422c0.444-0.131,0.889-0.262,1.334-0.393C266.917,335.377,269.634,340.316,272.352,345.254z
			 M310.468,328.129c-0.521-3.002-0.307-5.17,3.86-5.689c0.699,2.947,1.36,5.738,2.06,8.686
			C312.471,332.467,311.022,331.307,310.468,328.129z"/>
	</g>
</g>
</svg>
